<mxfile host="app.diagrams.net" agent="Mozilla/5.0 (Windows NT 10.0; Win64; x64) AppleWebKit/537.36 (KHTML, like Gecko) Chrome/129.0.0.0 Safari/537.36" version="24.7.17">
  <diagram name="P치gina-1" id="xpifWvf6SRwog58EqpV_">
    <mxGraphModel dx="1500" dy="746" grid="1" gridSize="10" guides="1" tooltips="1" connect="1" arrows="1" fold="1" page="1" pageScale="1" pageWidth="827" pageHeight="1169" math="0" shadow="0">
      <root>
        <mxCell id="0" />
        <mxCell id="1" parent="0" />
        <mxCell id="F4EsTqSlpGRe9zcnmEeY-2" value="&lt;div style=&quot;font-size: 10px;&quot;&gt;&lt;font style=&quot;font-size: 10px;&quot;&gt;&amp;lt;&amp;lt;Page&amp;gt;&amp;gt;&lt;/font&gt;&lt;/div&gt;&lt;div style=&quot;font-size: 10px;&quot;&gt;&lt;font style=&quot;font-size: 10px;&quot;&gt;P치gina master&lt;/font&gt;&lt;br&gt;&lt;/div&gt;" style="swimlane;whiteSpace=wrap;html=1;" parent="1" vertex="1">
          <mxGeometry x="230" y="60" width="110" height="100" as="geometry" />
        </mxCell>
        <mxCell id="F4EsTqSlpGRe9zcnmEeY-9" value="&lt;div&gt;Head&lt;/div&gt;&lt;div&gt;&lt;br&gt;&lt;/div&gt;&lt;div&gt;Footer&lt;/div&gt;&lt;div&gt;&lt;br&gt;&lt;/div&gt;" style="text;html=1;align=center;verticalAlign=middle;resizable=0;points=[];autosize=1;strokeColor=none;fillColor=none;" parent="F4EsTqSlpGRe9zcnmEeY-2" vertex="1">
          <mxGeometry x="25" y="27.5" width="60" height="70" as="geometry" />
        </mxCell>
        <mxCell id="TZQfMn7rWuLPGx3C2Em4-1" value="&lt;div style=&quot;font-size: 11px;&quot;&gt;&lt;font style=&quot;font-size: 11px;&quot;&gt;&amp;lt;&amp;lt;Menu&amp;gt;&amp;gt;&lt;/font&gt;&lt;/div&gt;&lt;div style=&quot;font-size: 11px;&quot;&gt;&lt;font style=&quot;font-size: 11px;&quot;&gt;Header&lt;font style=&quot;font-size: 11px;&quot;&gt;&lt;br&gt;&lt;/font&gt;&lt;/font&gt;&lt;/div&gt;" style="swimlane;whiteSpace=wrap;html=1;" parent="1" vertex="1">
          <mxGeometry x="490" y="85" width="75" height="50" as="geometry">
            <mxRectangle x="420" y="85" width="90" height="40" as="alternateBounds" />
          </mxGeometry>
        </mxCell>
        <mxCell id="TZQfMn7rWuLPGx3C2Em4-2" value="&lt;font style=&quot;font-size: 10px;&quot;&gt;&lt;br&gt;&lt;/font&gt;" style="text;html=1;align=center;verticalAlign=middle;resizable=0;points=[];autosize=1;strokeColor=none;fillColor=none;" parent="TZQfMn7rWuLPGx3C2Em4-1" vertex="1">
          <mxGeometry x="27.5" y="20" width="20" height="30" as="geometry" />
        </mxCell>
        <mxCell id="TZQfMn7rWuLPGx3C2Em4-4" value="" style="rhombus;whiteSpace=wrap;html=1;fillColor=#000000;" parent="1" vertex="1">
          <mxGeometry x="340" y="98.75" width="20" height="22.5" as="geometry" />
        </mxCell>
        <mxCell id="TZQfMn7rWuLPGx3C2Em4-6" value="" style="endArrow=none;html=1;rounded=0;entryX=1;entryY=0.5;entryDx=0;entryDy=0;exitX=0;exitY=0.5;exitDx=0;exitDy=0;" parent="1" source="TZQfMn7rWuLPGx3C2Em4-1" target="TZQfMn7rWuLPGx3C2Em4-4" edge="1">
          <mxGeometry width="50" height="50" relative="1" as="geometry">
            <mxPoint x="340" y="240" as="sourcePoint" />
            <mxPoint x="390" y="190" as="targetPoint" />
          </mxGeometry>
        </mxCell>
        <mxCell id="TZQfMn7rWuLPGx3C2Em4-9" value="&lt;div style=&quot;font-size: 11px;&quot;&gt;&lt;font style=&quot;font-size: 11px;&quot;&gt;&amp;lt;&amp;lt;Footer&amp;gt;&amp;gt;&lt;/font&gt;&lt;/div&gt;&lt;div style=&quot;font-size: 11px;&quot;&gt;&lt;font style=&quot;font-size: 11px;&quot;&gt;Footer&lt;font style=&quot;font-size: 11px;&quot;&gt;&lt;br&gt;&lt;/font&gt;&lt;/font&gt;&lt;/div&gt;" style="swimlane;whiteSpace=wrap;html=1;" parent="1" vertex="1">
          <mxGeometry x="90" y="85" width="75" height="50" as="geometry">
            <mxRectangle x="420" y="85" width="90" height="40" as="alternateBounds" />
          </mxGeometry>
        </mxCell>
        <mxCell id="TZQfMn7rWuLPGx3C2Em4-10" value="&lt;font style=&quot;font-size: 10px;&quot;&gt;&lt;br&gt;&lt;/font&gt;" style="text;html=1;align=center;verticalAlign=middle;resizable=0;points=[];autosize=1;strokeColor=none;fillColor=none;" parent="TZQfMn7rWuLPGx3C2Em4-9" vertex="1">
          <mxGeometry x="27.5" y="20" width="20" height="30" as="geometry" />
        </mxCell>
        <mxCell id="TZQfMn7rWuLPGx3C2Em4-11" value="" style="rhombus;whiteSpace=wrap;html=1;fillColor=#000000;" parent="1" vertex="1">
          <mxGeometry x="210" y="98.75" width="20" height="22.5" as="geometry" />
        </mxCell>
        <mxCell id="TZQfMn7rWuLPGx3C2Em4-12" value="" style="endArrow=none;html=1;rounded=0;entryX=0;entryY=0.5;entryDx=0;entryDy=0;exitX=1;exitY=0.5;exitDx=0;exitDy=0;" parent="1" source="TZQfMn7rWuLPGx3C2Em4-9" target="TZQfMn7rWuLPGx3C2Em4-11" edge="1">
          <mxGeometry width="50" height="50" relative="1" as="geometry">
            <mxPoint x="260" y="220" as="sourcePoint" />
            <mxPoint x="310" y="170" as="targetPoint" />
          </mxGeometry>
        </mxCell>
        <mxCell id="TZQfMn7rWuLPGx3C2Em4-16" value="" style="shape=flexArrow;endArrow=classic;html=1;rounded=0;entryX=0.5;entryY=1;entryDx=0;entryDy=0;" parent="1" edge="1">
          <mxGeometry width="50" height="50" relative="1" as="geometry">
            <mxPoint x="289.66" y="180" as="sourcePoint" />
            <mxPoint x="289.66" y="160" as="targetPoint" />
          </mxGeometry>
        </mxCell>
        <mxCell id="TZQfMn7rWuLPGx3C2Em4-18" value="&lt;font style=&quot;font-size: 10px;&quot;&gt;&amp;lt;&amp;lt;Page&amp;gt;&amp;gt;&lt;/font&gt;" style="swimlane;whiteSpace=wrap;html=1;" parent="1" vertex="1">
          <mxGeometry x="252" y="250" width="77.5" height="50" as="geometry" />
        </mxCell>
        <mxCell id="TZQfMn7rWuLPGx3C2Em4-19" value="Main Page" style="text;html=1;align=center;verticalAlign=middle;resizable=0;points=[];autosize=1;strokeColor=none;fillColor=none;" parent="TZQfMn7rWuLPGx3C2Em4-18" vertex="1">
          <mxGeometry x="-2.5" y="20" width="80" height="30" as="geometry" />
        </mxCell>
        <mxCell id="TZQfMn7rWuLPGx3C2Em4-21" value="" style="rhombus;whiteSpace=wrap;html=1;fillColor=#000000;" parent="1" vertex="1">
          <mxGeometry x="327" y="265.25" width="20" height="22.5" as="geometry" />
        </mxCell>
        <mxCell id="TZQfMn7rWuLPGx3C2Em4-22" value="&lt;div style=&quot;font-size: 11px;&quot;&gt;&lt;font style=&quot;font-size: 11px;&quot;&gt;&amp;lt;&amp;lt;Plugin&amp;gt;&amp;gt;&lt;/font&gt;&lt;/div&gt;&lt;div style=&quot;font-size: 11px;&quot;&gt;&lt;font style=&quot;font-size: 11px;&quot;&gt;Slider&lt;font style=&quot;font-size: 11px;&quot;&gt;&lt;br&gt;&lt;/font&gt;&lt;/font&gt;&lt;/div&gt;" style="swimlane;whiteSpace=wrap;html=1;" parent="1" vertex="1">
          <mxGeometry x="360" y="250" width="75" height="53" as="geometry" />
        </mxCell>
        <mxCell id="TZQfMn7rWuLPGx3C2Em4-24" value="" style="endArrow=none;html=1;rounded=0;exitX=1;exitY=0.5;exitDx=0;exitDy=0;entryX=0;entryY=0.5;entryDx=0;entryDy=0;" parent="1" source="TZQfMn7rWuLPGx3C2Em4-21" target="TZQfMn7rWuLPGx3C2Em4-22" edge="1">
          <mxGeometry width="50" height="50" relative="1" as="geometry">
            <mxPoint x="260" y="270" as="sourcePoint" />
            <mxPoint x="310" y="220" as="targetPoint" />
          </mxGeometry>
        </mxCell>
        <mxCell id="TZQfMn7rWuLPGx3C2Em4-25" value="&lt;div style=&quot;font-size: 11px;&quot;&gt;&lt;font style=&quot;font-size: 11px;&quot;&gt;&amp;lt;&amp;lt;MenuItem&amp;gt;&amp;gt;&lt;/font&gt;&lt;/div&gt;&lt;div style=&quot;font-size: 11px;&quot;&gt;&lt;font style=&quot;font-size: 11px;&quot;&gt;Secci칩n&lt;font style=&quot;font-size: 11px;&quot;&gt;&lt;br&gt;&lt;/font&gt;&lt;/font&gt;&lt;/div&gt;" style="swimlane;whiteSpace=wrap;html=1;" parent="1" vertex="1">
          <mxGeometry x="270" y="360" width="95" height="50" as="geometry">
            <mxRectangle x="420" y="85" width="90" height="40" as="alternateBounds" />
          </mxGeometry>
        </mxCell>
        <mxCell id="TZQfMn7rWuLPGx3C2Em4-26" value="&lt;font style=&quot;font-size: 10px;&quot;&gt;&lt;br&gt;&lt;/font&gt;" style="text;html=1;align=center;verticalAlign=middle;resizable=0;points=[];autosize=1;strokeColor=none;fillColor=none;" parent="TZQfMn7rWuLPGx3C2Em4-25" vertex="1">
          <mxGeometry x="27.5" y="20" width="20" height="30" as="geometry" />
        </mxCell>
        <mxCell id="TZQfMn7rWuLPGx3C2Em4-28" value="&lt;div&gt;Funerarios&lt;/div&gt;" style="text;html=1;align=center;verticalAlign=middle;resizable=0;points=[];autosize=1;strokeColor=none;fillColor=none;" parent="TZQfMn7rWuLPGx3C2Em4-25" vertex="1">
          <mxGeometry x="7.5" y="20" width="80" height="30" as="geometry" />
        </mxCell>
        <mxCell id="TZQfMn7rWuLPGx3C2Em4-29" value="&lt;div style=&quot;font-size: 11px;&quot;&gt;&lt;font style=&quot;font-size: 11px;&quot;&gt;&amp;lt;&amp;lt;MenuItem&amp;gt;&amp;gt;&lt;/font&gt;&lt;/div&gt;&lt;div style=&quot;font-size: 11px;&quot;&gt;&lt;font style=&quot;font-size: 11px;&quot;&gt;Secci칩n&lt;font style=&quot;font-size: 11px;&quot;&gt;&lt;br&gt;&lt;/font&gt;&lt;/font&gt;&lt;/div&gt;" style="swimlane;whiteSpace=wrap;html=1;" parent="1" vertex="1">
          <mxGeometry x="400" y="360" width="95" height="50" as="geometry">
            <mxRectangle x="420" y="85" width="90" height="40" as="alternateBounds" />
          </mxGeometry>
        </mxCell>
        <mxCell id="TZQfMn7rWuLPGx3C2Em4-30" value="&lt;font style=&quot;font-size: 10px;&quot;&gt;&lt;br&gt;&lt;/font&gt;" style="text;html=1;align=center;verticalAlign=middle;resizable=0;points=[];autosize=1;strokeColor=none;fillColor=none;" parent="TZQfMn7rWuLPGx3C2Em4-29" vertex="1">
          <mxGeometry x="27.5" y="20" width="20" height="30" as="geometry" />
        </mxCell>
        <mxCell id="TZQfMn7rWuLPGx3C2Em4-31" value="&lt;div&gt;Maternales&lt;/div&gt;" style="text;html=1;align=center;verticalAlign=middle;resizable=0;points=[];autosize=1;strokeColor=none;fillColor=none;" parent="TZQfMn7rWuLPGx3C2Em4-29" vertex="1">
          <mxGeometry x="7" y="20" width="80" height="30" as="geometry" />
        </mxCell>
        <mxCell id="TZQfMn7rWuLPGx3C2Em4-33" value="&lt;div style=&quot;font-size: 11px;&quot;&gt;&lt;font style=&quot;font-size: 11px;&quot;&gt;&amp;lt;&amp;lt;MenuItem&amp;gt;&amp;gt;&lt;/font&gt;&lt;/div&gt;&lt;div style=&quot;font-size: 11px;&quot;&gt;&lt;font style=&quot;font-size: 11px;&quot;&gt;Secci칩n&lt;font style=&quot;font-size: 11px;&quot;&gt;&lt;br&gt;&lt;/font&gt;&lt;/font&gt;&lt;/div&gt;" style="swimlane;whiteSpace=wrap;html=1;" parent="1" vertex="1">
          <mxGeometry x="520" y="360" width="95" height="50" as="geometry">
            <mxRectangle x="420" y="85" width="90" height="40" as="alternateBounds" />
          </mxGeometry>
        </mxCell>
        <mxCell id="TZQfMn7rWuLPGx3C2Em4-34" value="&lt;font style=&quot;font-size: 10px;&quot;&gt;&lt;br&gt;&lt;/font&gt;" style="text;html=1;align=center;verticalAlign=middle;resizable=0;points=[];autosize=1;strokeColor=none;fillColor=none;" parent="TZQfMn7rWuLPGx3C2Em4-33" vertex="1">
          <mxGeometry x="27.5" y="20" width="20" height="30" as="geometry" />
        </mxCell>
        <mxCell id="TZQfMn7rWuLPGx3C2Em4-35" value="Ramos" style="text;html=1;align=center;verticalAlign=middle;resizable=0;points=[];autosize=1;strokeColor=none;fillColor=none;" parent="TZQfMn7rWuLPGx3C2Em4-33" vertex="1">
          <mxGeometry x="17" y="20" width="60" height="30" as="geometry" />
        </mxCell>
        <mxCell id="TZQfMn7rWuLPGx3C2Em4-36" value="&lt;div style=&quot;font-size: 11px;&quot;&gt;&lt;font style=&quot;font-size: 11px;&quot;&gt;&amp;lt;&amp;lt;MenuItem&amp;gt;&amp;gt;&lt;/font&gt;&lt;/div&gt;&lt;div style=&quot;font-size: 11px;&quot;&gt;&lt;font style=&quot;font-size: 11px;&quot;&gt;Secci칩n&lt;font style=&quot;font-size: 11px;&quot;&gt;&lt;br&gt;&lt;/font&gt;&lt;/font&gt;&lt;/div&gt;" style="swimlane;whiteSpace=wrap;html=1;" parent="1" vertex="1">
          <mxGeometry x="640" y="360" width="97" height="50" as="geometry">
            <mxRectangle x="420" y="85" width="90" height="40" as="alternateBounds" />
          </mxGeometry>
        </mxCell>
        <mxCell id="TZQfMn7rWuLPGx3C2Em4-37" value="&lt;font style=&quot;font-size: 10px;&quot;&gt;&lt;br&gt;&lt;/font&gt;" style="text;html=1;align=center;verticalAlign=middle;resizable=0;points=[];autosize=1;strokeColor=none;fillColor=none;" parent="TZQfMn7rWuLPGx3C2Em4-36" vertex="1">
          <mxGeometry x="27.5" y="20" width="20" height="30" as="geometry" />
        </mxCell>
        <mxCell id="TZQfMn7rWuLPGx3C2Em4-38" value="&lt;div&gt;Celebraciones&lt;/div&gt;" style="text;html=1;align=center;verticalAlign=middle;resizable=0;points=[];autosize=1;strokeColor=none;fillColor=none;" parent="TZQfMn7rWuLPGx3C2Em4-36" vertex="1">
          <mxGeometry x="-3" y="20" width="100" height="30" as="geometry" />
        </mxCell>
        <mxCell id="TZQfMn7rWuLPGx3C2Em4-42" value="" style="rhombus;whiteSpace=wrap;html=1;fillColor=#000000;" parent="1" vertex="1">
          <mxGeometry x="520" y="135" width="20" height="22.5" as="geometry" />
        </mxCell>
        <mxCell id="TZQfMn7rWuLPGx3C2Em4-44" value="" style="endArrow=none;html=1;rounded=0;" parent="1" edge="1">
          <mxGeometry width="50" height="50" relative="1" as="geometry">
            <mxPoint x="530" y="320" as="sourcePoint" />
            <mxPoint x="530" y="160" as="targetPoint" />
          </mxGeometry>
        </mxCell>
        <mxCell id="TZQfMn7rWuLPGx3C2Em4-45" value="" style="endArrow=none;html=1;rounded=0;" parent="1" edge="1">
          <mxGeometry width="50" height="50" relative="1" as="geometry">
            <mxPoint x="340" y="320" as="sourcePoint" />
            <mxPoint x="530" y="320" as="targetPoint" />
          </mxGeometry>
        </mxCell>
        <mxCell id="TZQfMn7rWuLPGx3C2Em4-46" value="" style="endArrow=none;html=1;rounded=0;exitX=0.5;exitY=0;exitDx=0;exitDy=0;" parent="1" source="TZQfMn7rWuLPGx3C2Em4-18" edge="1">
          <mxGeometry width="50" height="50" relative="1" as="geometry">
            <mxPoint x="350" y="340" as="sourcePoint" />
            <mxPoint x="290" y="180" as="targetPoint" />
          </mxGeometry>
        </mxCell>
        <mxCell id="TZQfMn7rWuLPGx3C2Em4-47" value="" style="endArrow=none;html=1;rounded=0;" parent="1" edge="1">
          <mxGeometry width="50" height="50" relative="1" as="geometry">
            <mxPoint x="320" y="320" as="sourcePoint" />
            <mxPoint x="340" y="320" as="targetPoint" />
          </mxGeometry>
        </mxCell>
        <mxCell id="TZQfMn7rWuLPGx3C2Em4-49" value="" style="endArrow=none;html=1;rounded=0;" parent="1" edge="1">
          <mxGeometry width="50" height="50" relative="1" as="geometry">
            <mxPoint x="320" y="360" as="sourcePoint" />
            <mxPoint x="320" y="320" as="targetPoint" />
          </mxGeometry>
        </mxCell>
        <mxCell id="TZQfMn7rWuLPGx3C2Em4-50" value="" style="endArrow=none;html=1;rounded=0;exitX=0.423;exitY=0;exitDx=0;exitDy=0;exitPerimeter=0;" parent="1" source="TZQfMn7rWuLPGx3C2Em4-29" edge="1">
          <mxGeometry width="50" height="50" relative="1" as="geometry">
            <mxPoint x="450" y="380" as="sourcePoint" />
            <mxPoint x="440" y="320" as="targetPoint" />
          </mxGeometry>
        </mxCell>
        <mxCell id="TZQfMn7rWuLPGx3C2Em4-51" value="" style="endArrow=none;html=1;rounded=0;" parent="1" edge="1">
          <mxGeometry width="50" height="50" relative="1" as="geometry">
            <mxPoint x="690" y="320" as="sourcePoint" />
            <mxPoint x="530" y="320" as="targetPoint" />
          </mxGeometry>
        </mxCell>
        <mxCell id="TZQfMn7rWuLPGx3C2Em4-53" value="" style="endArrow=none;html=1;rounded=0;exitX=0.52;exitY=0;exitDx=0;exitDy=0;exitPerimeter=0;" parent="1" source="TZQfMn7rWuLPGx3C2Em4-33" edge="1">
          <mxGeometry width="50" height="50" relative="1" as="geometry">
            <mxPoint x="600" y="380" as="sourcePoint" />
            <mxPoint x="570" y="320" as="targetPoint" />
          </mxGeometry>
        </mxCell>
        <mxCell id="TZQfMn7rWuLPGx3C2Em4-54" value="" style="endArrow=none;html=1;rounded=0;" parent="1" edge="1">
          <mxGeometry width="50" height="50" relative="1" as="geometry">
            <mxPoint x="690" y="360" as="sourcePoint" />
            <mxPoint x="690" y="320" as="targetPoint" />
          </mxGeometry>
        </mxCell>
        <mxCell id="TZQfMn7rWuLPGx3C2Em4-55" value="" style="endArrow=classic;html=1;rounded=0;exitX=0.521;exitY=1.107;exitDx=0;exitDy=0;exitPerimeter=0;" parent="1" source="TZQfMn7rWuLPGx3C2Em4-28" edge="1">
          <mxGeometry width="50" height="50" relative="1" as="geometry">
            <mxPoint x="340" y="510" as="sourcePoint" />
            <mxPoint x="320" y="560" as="targetPoint" />
          </mxGeometry>
        </mxCell>
        <mxCell id="TZQfMn7rWuLPGx3C2Em4-56" value="" style="endArrow=classic;html=1;rounded=0;exitX=0.521;exitY=1.107;exitDx=0;exitDy=0;exitPerimeter=0;" parent="1" edge="1">
          <mxGeometry width="50" height="50" relative="1" as="geometry">
            <mxPoint x="439" y="410" as="sourcePoint" />
            <mxPoint x="440" y="557" as="targetPoint" />
          </mxGeometry>
        </mxCell>
        <mxCell id="TZQfMn7rWuLPGx3C2Em4-57" value="" style="endArrow=classic;html=1;rounded=0;exitX=0.521;exitY=1.107;exitDx=0;exitDy=0;exitPerimeter=0;" parent="1" edge="1">
          <mxGeometry width="50" height="50" relative="1" as="geometry">
            <mxPoint x="567" y="410" as="sourcePoint" />
            <mxPoint x="568" y="557" as="targetPoint" />
          </mxGeometry>
        </mxCell>
        <mxCell id="TZQfMn7rWuLPGx3C2Em4-58" value="" style="endArrow=classic;html=1;rounded=0;exitX=0.521;exitY=1.107;exitDx=0;exitDy=0;exitPerimeter=0;" parent="1" edge="1">
          <mxGeometry width="50" height="50" relative="1" as="geometry">
            <mxPoint x="688" y="410" as="sourcePoint" />
            <mxPoint x="689" y="557" as="targetPoint" />
          </mxGeometry>
        </mxCell>
        <mxCell id="TZQfMn7rWuLPGx3C2Em4-59" value="&lt;font style=&quot;font-size: 6px;&quot;&gt;&amp;lt;&amp;lt;navigate&amp;gt;&amp;gt;&lt;/font&gt;" style="text;html=1;align=center;verticalAlign=middle;whiteSpace=wrap;rounded=0;" parent="1" vertex="1">
          <mxGeometry x="320" y="450" width="60" height="30" as="geometry" />
        </mxCell>
        <mxCell id="TZQfMn7rWuLPGx3C2Em4-60" value="&lt;font style=&quot;font-size: 6px;&quot;&gt;&amp;lt;&amp;lt;navigate&amp;gt;&amp;gt;&lt;/font&gt;" style="text;html=1;align=center;verticalAlign=middle;whiteSpace=wrap;rounded=0;" parent="1" vertex="1">
          <mxGeometry x="690" y="450" width="60" height="30" as="geometry" />
        </mxCell>
        <mxCell id="TZQfMn7rWuLPGx3C2Em4-61" value="&lt;font style=&quot;font-size: 6px;&quot;&gt;&amp;lt;&amp;lt;navigate&amp;gt;&amp;gt;&lt;/font&gt;" style="text;html=1;align=center;verticalAlign=middle;whiteSpace=wrap;rounded=0;" parent="1" vertex="1">
          <mxGeometry x="565" y="450" width="60" height="30" as="geometry" />
        </mxCell>
        <mxCell id="TZQfMn7rWuLPGx3C2Em4-62" value="&lt;font style=&quot;font-size: 6px;&quot;&gt;&amp;lt;&amp;lt;navigate&amp;gt;&amp;gt;&lt;/font&gt;" style="text;html=1;align=center;verticalAlign=middle;whiteSpace=wrap;rounded=0;" parent="1" vertex="1">
          <mxGeometry x="435" y="450" width="60" height="30" as="geometry" />
        </mxCell>
        <mxCell id="TZQfMn7rWuLPGx3C2Em4-63" value="" style="swimlane;whiteSpace=wrap;html=1;" parent="1" vertex="1">
          <mxGeometry x="520" y="559" width="110" height="50" as="geometry">
            <mxRectangle x="420" y="85" width="90" height="40" as="alternateBounds" />
          </mxGeometry>
        </mxCell>
        <mxCell id="TZQfMn7rWuLPGx3C2Em4-64" value="&lt;font style=&quot;font-size: 10px;&quot;&gt;&lt;br&gt;&lt;/font&gt;" style="text;html=1;align=center;verticalAlign=middle;resizable=0;points=[];autosize=1;strokeColor=none;fillColor=none;" parent="TZQfMn7rWuLPGx3C2Em4-63" vertex="1">
          <mxGeometry x="27.5" y="20" width="20" height="30" as="geometry" />
        </mxCell>
        <mxCell id="TZQfMn7rWuLPGx3C2Em4-65" value="&lt;div&gt;&lt;br&gt;&lt;/div&gt;" style="text;html=1;align=center;verticalAlign=middle;resizable=0;points=[];autosize=1;strokeColor=none;fillColor=none;" parent="TZQfMn7rWuLPGx3C2Em4-63" vertex="1">
          <mxGeometry x="37.5" y="20" width="20" height="30" as="geometry" />
        </mxCell>
        <mxCell id="TZQfMn7rWuLPGx3C2Em4-66" value="" style="swimlane;whiteSpace=wrap;html=1;" parent="1" vertex="1">
          <mxGeometry x="385" y="559" width="115" height="50" as="geometry">
            <mxRectangle x="420" y="85" width="90" height="40" as="alternateBounds" />
          </mxGeometry>
        </mxCell>
        <mxCell id="TZQfMn7rWuLPGx3C2Em4-67" value="&lt;font style=&quot;font-size: 10px;&quot;&gt;&lt;br&gt;&lt;/font&gt;" style="text;html=1;align=center;verticalAlign=middle;resizable=0;points=[];autosize=1;strokeColor=none;fillColor=none;" parent="TZQfMn7rWuLPGx3C2Em4-66" vertex="1">
          <mxGeometry x="27.5" y="20" width="20" height="30" as="geometry" />
        </mxCell>
        <mxCell id="TZQfMn7rWuLPGx3C2Em4-68" value="&lt;div&gt;&lt;br&gt;&lt;/div&gt;" style="text;html=1;align=center;verticalAlign=middle;resizable=0;points=[];autosize=1;strokeColor=none;fillColor=none;" parent="TZQfMn7rWuLPGx3C2Em4-66" vertex="1">
          <mxGeometry x="37.5" y="20" width="20" height="30" as="geometry" />
        </mxCell>
        <mxCell id="TZQfMn7rWuLPGx3C2Em4-76" value="&lt;div style=&quot;font-size: 11px;&quot;&gt;&lt;font style=&quot;font-size: 11px;&quot;&gt;&lt;b&gt;&lt;font style=&quot;font-size: 11px;&quot;&gt;&amp;lt;&lt;font style=&quot;font-size: 11px;&quot;&gt;&amp;lt;Page&amp;gt;&amp;gt;&lt;/font&gt;&lt;/font&gt;&lt;/b&gt;&lt;/font&gt;&lt;/div&gt;&lt;font style=&quot;font-size: 11px;&quot;&gt;&lt;b&gt;Centros Maternales&lt;/b&gt;&lt;/font&gt;" style="text;html=1;align=center;verticalAlign=middle;whiteSpace=wrap;rounded=0;" parent="TZQfMn7rWuLPGx3C2Em4-66" vertex="1">
          <mxGeometry x="-8.75" width="130" height="20" as="geometry" />
        </mxCell>
        <mxCell id="TZQfMn7rWuLPGx3C2Em4-69" value="" style="swimlane;whiteSpace=wrap;html=1;" parent="1" vertex="1">
          <mxGeometry x="270" y="559" width="95" height="51" as="geometry">
            <mxRectangle x="420" y="85" width="90" height="40" as="alternateBounds" />
          </mxGeometry>
        </mxCell>
        <mxCell id="TZQfMn7rWuLPGx3C2Em4-70" value="&lt;font style=&quot;font-size: 10px;&quot;&gt;&lt;br&gt;&lt;/font&gt;" style="text;html=1;align=center;verticalAlign=middle;resizable=0;points=[];autosize=1;strokeColor=none;fillColor=none;" parent="TZQfMn7rWuLPGx3C2Em4-69" vertex="1">
          <mxGeometry x="27.5" y="20" width="20" height="30" as="geometry" />
        </mxCell>
        <mxCell id="TZQfMn7rWuLPGx3C2Em4-72" value="" style="swimlane;whiteSpace=wrap;html=1;" parent="1" vertex="1">
          <mxGeometry x="641" y="554" width="109" height="56" as="geometry">
            <mxRectangle x="420" y="85" width="90" height="40" as="alternateBounds" />
          </mxGeometry>
        </mxCell>
        <mxCell id="TZQfMn7rWuLPGx3C2Em4-73" value="&lt;font style=&quot;font-size: 10px;&quot;&gt;&lt;br&gt;&lt;/font&gt;" style="text;html=1;align=center;verticalAlign=middle;resizable=0;points=[];autosize=1;strokeColor=none;fillColor=none;" parent="TZQfMn7rWuLPGx3C2Em4-72" vertex="1">
          <mxGeometry x="27.5" y="20" width="20" height="30" as="geometry" />
        </mxCell>
        <mxCell id="TZQfMn7rWuLPGx3C2Em4-75" value="&lt;div style=&quot;font-size: 10px;&quot;&gt;&lt;b&gt;&lt;font style=&quot;font-size: 10px;&quot;&gt;&amp;lt;&lt;font style=&quot;font-size: 10px;&quot;&gt;&amp;lt;Page&amp;gt;&amp;gt;&lt;/font&gt;&lt;/font&gt;&lt;/b&gt;&lt;/div&gt;&lt;div style=&quot;font-size: 10px;&quot;&gt;&lt;b&gt;&lt;font style=&quot;font-size: 10px;&quot;&gt;Arreglos Funerarios&lt;/font&gt;&lt;/b&gt;&lt;br&gt;&lt;/div&gt;" style="text;html=1;align=center;verticalAlign=middle;whiteSpace=wrap;rounded=0;" parent="1" vertex="1">
          <mxGeometry x="220" y="554" width="195" height="30" as="geometry" />
        </mxCell>
        <mxCell id="TZQfMn7rWuLPGx3C2Em4-78" value="&lt;div style=&quot;font-size: 10px;&quot;&gt;&lt;b&gt;&lt;font style=&quot;font-size: 10px;&quot;&gt;&amp;lt;&lt;font style=&quot;font-size: 10px;&quot;&gt;&amp;lt;Page&amp;gt;&amp;gt;&lt;/font&gt;&lt;/font&gt;&lt;/b&gt;&lt;/div&gt;&lt;div style=&quot;font-size: 10px;&quot;&gt;&lt;b&gt;Ramos&lt;/b&gt;&lt;br&gt;&lt;/div&gt;" style="text;html=1;align=center;verticalAlign=middle;whiteSpace=wrap;rounded=0;" parent="1" vertex="1">
          <mxGeometry x="477.5" y="554" width="195" height="30" as="geometry" />
        </mxCell>
        <mxCell id="TZQfMn7rWuLPGx3C2Em4-80" value="&lt;div style=&quot;font-size: 10px;&quot;&gt;&lt;b&gt;&lt;font style=&quot;font-size: 10px;&quot;&gt;&amp;lt;&lt;font style=&quot;font-size: 10px;&quot;&gt;&amp;lt;Page&amp;gt;&amp;gt;&lt;/font&gt;&lt;/font&gt;&lt;/b&gt;&lt;/div&gt;&lt;div style=&quot;font-size: 10px;&quot;&gt;&lt;b&gt;Celebraciones&lt;/b&gt;&lt;br&gt;&lt;/div&gt;" style="text;html=1;align=center;verticalAlign=middle;whiteSpace=wrap;rounded=0;" parent="1" vertex="1">
          <mxGeometry x="598" y="549" width="195" height="30" as="geometry" />
        </mxCell>
        <mxCell id="TZQfMn7rWuLPGx3C2Em4-81" value="&lt;div style=&quot;font-size: 11px;&quot;&gt;&lt;font style=&quot;font-size: 11px;&quot;&gt;&amp;lt;&amp;lt;Plugin&amp;gt;&amp;gt;&lt;/font&gt;&lt;/div&gt;&lt;div style=&quot;font-size: 11px;&quot;&gt;&lt;font style=&quot;font-size: 11px;&quot;&gt;Cat치logo&lt;font style=&quot;font-size: 11px;&quot;&gt;&lt;br&gt;&lt;/font&gt;&lt;/font&gt;&lt;/div&gt;" style="swimlane;whiteSpace=wrap;html=1;" parent="1" vertex="1">
          <mxGeometry x="277.5" y="650" width="80" height="40" as="geometry">
            <mxRectangle x="420" y="85" width="90" height="40" as="alternateBounds" />
          </mxGeometry>
        </mxCell>
        <mxCell id="TZQfMn7rWuLPGx3C2Em4-82" value="&lt;font style=&quot;font-size: 10px;&quot;&gt;&lt;br&gt;&lt;/font&gt;" style="text;html=1;align=center;verticalAlign=middle;resizable=0;points=[];autosize=1;strokeColor=none;fillColor=none;" parent="TZQfMn7rWuLPGx3C2Em4-81" vertex="1">
          <mxGeometry x="27.5" y="20" width="20" height="30" as="geometry" />
        </mxCell>
        <mxCell id="TZQfMn7rWuLPGx3C2Em4-84" value="" style="rhombus;whiteSpace=wrap;html=1;fillColor=#000000;" parent="1" vertex="1">
          <mxGeometry x="307.5" y="609" width="20" height="22.5" as="geometry" />
        </mxCell>
        <mxCell id="TZQfMn7rWuLPGx3C2Em4-85" value="" style="endArrow=none;html=1;rounded=0;entryX=0.5;entryY=1;entryDx=0;entryDy=0;exitX=0.5;exitY=0;exitDx=0;exitDy=0;" parent="1" source="TZQfMn7rWuLPGx3C2Em4-81" target="TZQfMn7rWuLPGx3C2Em4-84" edge="1">
          <mxGeometry width="50" height="50" relative="1" as="geometry">
            <mxPoint x="180" y="695" as="sourcePoint" />
            <mxPoint x="230" y="645" as="targetPoint" />
          </mxGeometry>
        </mxCell>
        <mxCell id="TZQfMn7rWuLPGx3C2Em4-86" value="&lt;div style=&quot;font-size: 11px;&quot;&gt;&lt;font style=&quot;font-size: 11px;&quot;&gt;&amp;lt;&amp;lt;Plugin&amp;gt;&amp;gt;&lt;/font&gt;&lt;/div&gt;&lt;div style=&quot;font-size: 11px;&quot;&gt;&lt;font style=&quot;font-size: 11px;&quot;&gt;Cat치logo&lt;font style=&quot;font-size: 11px;&quot;&gt;&lt;br&gt;&lt;/font&gt;&lt;/font&gt;&lt;/div&gt;" style="swimlane;whiteSpace=wrap;html=1;" parent="1" vertex="1">
          <mxGeometry x="400" y="650" width="80" height="40" as="geometry">
            <mxRectangle x="420" y="85" width="90" height="40" as="alternateBounds" />
          </mxGeometry>
        </mxCell>
        <mxCell id="TZQfMn7rWuLPGx3C2Em4-87" value="&lt;font style=&quot;font-size: 10px;&quot;&gt;&lt;br&gt;&lt;/font&gt;" style="text;html=1;align=center;verticalAlign=middle;resizable=0;points=[];autosize=1;strokeColor=none;fillColor=none;" parent="TZQfMn7rWuLPGx3C2Em4-86" vertex="1">
          <mxGeometry x="27.5" y="20" width="20" height="30" as="geometry" />
        </mxCell>
        <mxCell id="TZQfMn7rWuLPGx3C2Em4-88" value="" style="endArrow=none;html=1;rounded=0;entryX=0.5;entryY=1;entryDx=0;entryDy=0;exitX=0.5;exitY=0;exitDx=0;exitDy=0;" parent="1" source="TZQfMn7rWuLPGx3C2Em4-86" edge="1">
          <mxGeometry width="50" height="50" relative="1" as="geometry">
            <mxPoint x="302.5" y="695" as="sourcePoint" />
            <mxPoint x="440.5" y="632" as="targetPoint" />
          </mxGeometry>
        </mxCell>
        <mxCell id="TZQfMn7rWuLPGx3C2Em4-89" value="" style="rhombus;whiteSpace=wrap;html=1;fillColor=#000000;" parent="1" vertex="1">
          <mxGeometry x="430" y="609" width="20" height="22.5" as="geometry" />
        </mxCell>
        <mxCell id="TZQfMn7rWuLPGx3C2Em4-92" value="&lt;div style=&quot;font-size: 11px;&quot;&gt;&lt;font style=&quot;font-size: 11px;&quot;&gt;&amp;lt;&amp;lt;Plugin&amp;gt;&amp;gt;&lt;/font&gt;&lt;/div&gt;&lt;div style=&quot;font-size: 11px;&quot;&gt;&lt;font style=&quot;font-size: 11px;&quot;&gt;Cat치logo&lt;font style=&quot;font-size: 11px;&quot;&gt;&lt;br&gt;&lt;/font&gt;&lt;/font&gt;&lt;/div&gt;" style="swimlane;whiteSpace=wrap;html=1;" parent="1" vertex="1">
          <mxGeometry x="535" y="650" width="80" height="40" as="geometry">
            <mxRectangle x="420" y="85" width="90" height="40" as="alternateBounds" />
          </mxGeometry>
        </mxCell>
        <mxCell id="TZQfMn7rWuLPGx3C2Em4-93" value="&lt;font style=&quot;font-size: 10px;&quot;&gt;&lt;br&gt;&lt;/font&gt;" style="text;html=1;align=center;verticalAlign=middle;resizable=0;points=[];autosize=1;strokeColor=none;fillColor=none;" parent="TZQfMn7rWuLPGx3C2Em4-92" vertex="1">
          <mxGeometry x="37.5" y="20" width="20" height="30" as="geometry" />
        </mxCell>
        <mxCell id="TZQfMn7rWuLPGx3C2Em4-94" value="&lt;div style=&quot;font-size: 11px;&quot;&gt;&lt;font style=&quot;font-size: 11px;&quot;&gt;&amp;lt;&amp;lt;Plugin&amp;gt;&amp;gt;&lt;/font&gt;&lt;/div&gt;&lt;div style=&quot;font-size: 11px;&quot;&gt;&lt;font style=&quot;font-size: 11px;&quot;&gt;Cat치logo&lt;font style=&quot;font-size: 11px;&quot;&gt;&lt;br&gt;&lt;/font&gt;&lt;/font&gt;&lt;/div&gt;" style="swimlane;whiteSpace=wrap;html=1;" parent="1" vertex="1">
          <mxGeometry x="655.5" y="650" width="80" height="40" as="geometry">
            <mxRectangle x="420" y="85" width="90" height="40" as="alternateBounds" />
          </mxGeometry>
        </mxCell>
        <mxCell id="TZQfMn7rWuLPGx3C2Em4-96" value="" style="rhombus;whiteSpace=wrap;html=1;fillColor=#000000;" parent="1" vertex="1">
          <mxGeometry x="685.5" y="609" width="20" height="22.5" as="geometry" />
        </mxCell>
        <mxCell id="TZQfMn7rWuLPGx3C2Em4-97" value="" style="rhombus;whiteSpace=wrap;html=1;fillColor=#000000;" parent="1" vertex="1">
          <mxGeometry x="565" y="610" width="20" height="22.5" as="geometry" />
        </mxCell>
        <mxCell id="TZQfMn7rWuLPGx3C2Em4-101" value="" style="endArrow=none;html=1;rounded=0;entryX=0.5;entryY=1;entryDx=0;entryDy=0;exitX=0.5;exitY=0;exitDx=0;exitDy=0;" parent="1" source="TZQfMn7rWuLPGx3C2Em4-92" target="TZQfMn7rWuLPGx3C2Em4-97" edge="1">
          <mxGeometry width="50" height="50" relative="1" as="geometry">
            <mxPoint x="540" y="640" as="sourcePoint" />
            <mxPoint x="590" y="590" as="targetPoint" />
          </mxGeometry>
        </mxCell>
        <mxCell id="TZQfMn7rWuLPGx3C2Em4-102" value="" style="endArrow=none;html=1;rounded=0;entryX=0.5;entryY=1;entryDx=0;entryDy=0;exitX=0.5;exitY=0;exitDx=0;exitDy=0;" parent="1" source="TZQfMn7rWuLPGx3C2Em4-94" edge="1">
          <mxGeometry width="50" height="50" relative="1" as="geometry">
            <mxPoint x="697.0600000000001" y="651.36" as="sourcePoint" />
            <mxPoint x="695.5" y="631.5" as="targetPoint" />
          </mxGeometry>
        </mxCell>
        <mxCell id="TZQfMn7rWuLPGx3C2Em4-103" value="" style="endArrow=none;html=1;rounded=0;" parent="1" edge="1">
          <mxGeometry width="50" height="50" relative="1" as="geometry">
            <mxPoint x="220" y="590" as="sourcePoint" />
            <mxPoint x="270" y="590" as="targetPoint" />
          </mxGeometry>
        </mxCell>
        <mxCell id="TZQfMn7rWuLPGx3C2Em4-104" value="" style="endArrow=none;html=1;rounded=0;" parent="1" edge="1">
          <mxGeometry width="50" height="50" relative="1" as="geometry">
            <mxPoint x="220" y="590" as="sourcePoint" />
            <mxPoint x="220" y="240" as="targetPoint" />
          </mxGeometry>
        </mxCell>
        <mxCell id="TZQfMn7rWuLPGx3C2Em4-106" value="" style="endArrow=none;html=1;rounded=0;" parent="1" edge="1">
          <mxGeometry width="50" height="50" relative="1" as="geometry">
            <mxPoint x="220" y="240" as="sourcePoint" />
            <mxPoint x="290" y="240" as="targetPoint" />
          </mxGeometry>
        </mxCell>
        <mxCell id="TZQfMn7rWuLPGx3C2Em4-107" value="" style="endArrow=none;html=1;rounded=0;" parent="1" edge="1">
          <mxGeometry width="50" height="50" relative="1" as="geometry">
            <mxPoint x="380" y="590" as="sourcePoint" />
            <mxPoint x="385" y="590" as="targetPoint" />
          </mxGeometry>
        </mxCell>
        <mxCell id="TZQfMn7rWuLPGx3C2Em4-112" value="" style="endArrow=none;html=1;rounded=0;" parent="1" edge="1">
          <mxGeometry width="50" height="50" relative="1" as="geometry">
            <mxPoint x="511" y="590" as="sourcePoint" />
            <mxPoint x="520" y="590" as="targetPoint" />
          </mxGeometry>
        </mxCell>
        <mxCell id="TZQfMn7rWuLPGx3C2Em4-114" value="" style="endArrow=none;html=1;rounded=0;" parent="1" edge="1">
          <mxGeometry width="50" height="50" relative="1" as="geometry">
            <mxPoint x="380" y="710" as="sourcePoint" />
            <mxPoint x="380" y="590" as="targetPoint" />
          </mxGeometry>
        </mxCell>
        <mxCell id="TZQfMn7rWuLPGx3C2Em4-115" value="" style="endArrow=none;html=1;rounded=0;" parent="1" edge="1">
          <mxGeometry width="50" height="50" relative="1" as="geometry">
            <mxPoint x="200" y="710" as="sourcePoint" />
            <mxPoint x="380" y="710" as="targetPoint" />
          </mxGeometry>
        </mxCell>
        <mxCell id="TZQfMn7rWuLPGx3C2Em4-116" value="" style="endArrow=none;html=1;rounded=0;" parent="1" edge="1">
          <mxGeometry width="50" height="50" relative="1" as="geometry">
            <mxPoint x="511" y="740" as="sourcePoint" />
            <mxPoint x="511" y="590" as="targetPoint" />
          </mxGeometry>
        </mxCell>
        <mxCell id="TZQfMn7rWuLPGx3C2Em4-120" value="" style="endArrow=none;html=1;rounded=0;" parent="1" edge="1">
          <mxGeometry width="50" height="50" relative="1" as="geometry">
            <mxPoint x="180" y="740" as="sourcePoint" />
            <mxPoint x="510" y="740" as="targetPoint" />
          </mxGeometry>
        </mxCell>
        <mxCell id="TZQfMn7rWuLPGx3C2Em4-122" value="" style="endArrow=none;html=1;rounded=0;" parent="1" edge="1">
          <mxGeometry width="50" height="50" relative="1" as="geometry">
            <mxPoint x="200" y="710" as="sourcePoint" />
            <mxPoint x="200" y="230" as="targetPoint" />
          </mxGeometry>
        </mxCell>
        <mxCell id="TZQfMn7rWuLPGx3C2Em4-123" value="" style="endArrow=none;html=1;rounded=0;" parent="1" edge="1">
          <mxGeometry width="50" height="50" relative="1" as="geometry">
            <mxPoint x="200" y="230" as="sourcePoint" />
            <mxPoint x="290" y="230" as="targetPoint" />
          </mxGeometry>
        </mxCell>
        <mxCell id="TZQfMn7rWuLPGx3C2Em4-124" value="" style="endArrow=none;html=1;rounded=0;" parent="1" edge="1">
          <mxGeometry width="50" height="50" relative="1" as="geometry">
            <mxPoint x="180" y="740" as="sourcePoint" />
            <mxPoint x="180" y="220" as="targetPoint" />
          </mxGeometry>
        </mxCell>
        <mxCell id="TZQfMn7rWuLPGx3C2Em4-125" value="" style="endArrow=none;html=1;rounded=0;" parent="1" edge="1">
          <mxGeometry width="50" height="50" relative="1" as="geometry">
            <mxPoint x="180" y="220" as="sourcePoint" />
            <mxPoint x="290" y="220" as="targetPoint" />
          </mxGeometry>
        </mxCell>
        <mxCell id="TZQfMn7rWuLPGx3C2Em4-126" value="" style="endArrow=none;html=1;rounded=0;" parent="1" edge="1">
          <mxGeometry width="50" height="50" relative="1" as="geometry">
            <mxPoint x="160" y="760" as="sourcePoint" />
            <mxPoint x="160" y="210" as="targetPoint" />
          </mxGeometry>
        </mxCell>
        <mxCell id="TZQfMn7rWuLPGx3C2Em4-127" value="" style="endArrow=none;html=1;rounded=0;" parent="1" edge="1">
          <mxGeometry width="50" height="50" relative="1" as="geometry">
            <mxPoint x="160" y="210" as="sourcePoint" />
            <mxPoint x="290" y="210" as="targetPoint" />
          </mxGeometry>
        </mxCell>
        <mxCell id="O1R24SHKEE9NZaeV5XWA-1" value="" style="rhombus;whiteSpace=wrap;html=1;fillColor=#000000;" vertex="1" parent="1">
          <mxGeometry x="565" y="98.75" width="20" height="22.5" as="geometry" />
        </mxCell>
        <mxCell id="O1R24SHKEE9NZaeV5XWA-4" value="&lt;div style=&quot;font-size: 11px;&quot;&gt;&lt;font style=&quot;font-size: 11px;&quot;&gt;&amp;lt;&amp;lt;Image&amp;gt;&amp;gt;&lt;/font&gt;&lt;/div&gt;&lt;div style=&quot;font-size: 11px;&quot;&gt;&lt;font style=&quot;font-size: 11px;&quot;&gt;Logo&lt;font style=&quot;font-size: 11px;&quot;&gt;&lt;br&gt;&lt;/font&gt;&lt;/font&gt;&lt;/div&gt;" style="swimlane;whiteSpace=wrap;html=1;" vertex="1" parent="1">
          <mxGeometry x="658" y="85" width="75" height="50" as="geometry">
            <mxRectangle x="420" y="85" width="90" height="40" as="alternateBounds" />
          </mxGeometry>
        </mxCell>
        <mxCell id="O1R24SHKEE9NZaeV5XWA-5" value="&lt;font style=&quot;font-size: 10px;&quot;&gt;&lt;br&gt;&lt;/font&gt;" style="text;html=1;align=center;verticalAlign=middle;resizable=0;points=[];autosize=1;strokeColor=none;fillColor=none;" vertex="1" parent="O1R24SHKEE9NZaeV5XWA-4">
          <mxGeometry x="27.5" y="20" width="20" height="30" as="geometry" />
        </mxCell>
        <mxCell id="O1R24SHKEE9NZaeV5XWA-6" value="&lt;div style=&quot;font-size: 11px;&quot;&gt;&lt;font style=&quot;font-size: 11px;&quot;&gt;&amp;lt;&amp;lt;MenuItem&amp;gt;&amp;gt;&lt;/font&gt;&lt;/div&gt;&lt;div style=&quot;font-size: 11px;&quot;&gt;&lt;font style=&quot;font-size: 11px;&quot;&gt;Secci칩n&lt;font style=&quot;font-size: 11px;&quot;&gt;&lt;br&gt;&lt;/font&gt;&lt;/font&gt;&lt;/div&gt;" style="swimlane;whiteSpace=wrap;html=1;" vertex="1" parent="1">
          <mxGeometry x="770" y="360" width="97" height="50" as="geometry">
            <mxRectangle x="420" y="85" width="90" height="40" as="alternateBounds" />
          </mxGeometry>
        </mxCell>
        <mxCell id="O1R24SHKEE9NZaeV5XWA-7" value="&lt;font style=&quot;font-size: 10px;&quot;&gt;&lt;br&gt;&lt;/font&gt;" style="text;html=1;align=center;verticalAlign=middle;resizable=0;points=[];autosize=1;strokeColor=none;fillColor=none;" vertex="1" parent="O1R24SHKEE9NZaeV5XWA-6">
          <mxGeometry x="27.5" y="20" width="20" height="30" as="geometry" />
        </mxCell>
        <mxCell id="O1R24SHKEE9NZaeV5XWA-8" value="&lt;div&gt;Cesta&lt;/div&gt;" style="text;html=1;align=center;verticalAlign=middle;resizable=0;points=[];autosize=1;strokeColor=none;fillColor=none;" vertex="1" parent="O1R24SHKEE9NZaeV5XWA-6">
          <mxGeometry x="22" y="20" width="50" height="30" as="geometry" />
        </mxCell>
        <mxCell id="O1R24SHKEE9NZaeV5XWA-9" value="" style="endArrow=none;html=1;rounded=0;" edge="1" parent="1">
          <mxGeometry width="50" height="50" relative="1" as="geometry">
            <mxPoint x="820" y="360" as="sourcePoint" />
            <mxPoint x="820" y="320" as="targetPoint" />
          </mxGeometry>
        </mxCell>
        <mxCell id="O1R24SHKEE9NZaeV5XWA-10" value="" style="endArrow=classic;html=1;rounded=0;exitX=0.521;exitY=1.107;exitDx=0;exitDy=0;exitPerimeter=0;" edge="1" parent="1">
          <mxGeometry width="50" height="50" relative="1" as="geometry">
            <mxPoint x="818" y="410" as="sourcePoint" />
            <mxPoint x="819" y="557" as="targetPoint" />
          </mxGeometry>
        </mxCell>
        <mxCell id="O1R24SHKEE9NZaeV5XWA-11" value="&lt;font style=&quot;font-size: 6px;&quot;&gt;&amp;lt;&amp;lt;navigate&amp;gt;&amp;gt;&lt;/font&gt;" style="text;html=1;align=center;verticalAlign=middle;whiteSpace=wrap;rounded=0;" vertex="1" parent="1">
          <mxGeometry x="820" y="450" width="60" height="30" as="geometry" />
        </mxCell>
        <mxCell id="O1R24SHKEE9NZaeV5XWA-12" value="" style="swimlane;whiteSpace=wrap;html=1;" vertex="1" parent="1">
          <mxGeometry x="771" y="554" width="109" height="56" as="geometry">
            <mxRectangle x="420" y="85" width="90" height="40" as="alternateBounds" />
          </mxGeometry>
        </mxCell>
        <mxCell id="O1R24SHKEE9NZaeV5XWA-13" value="&lt;font style=&quot;font-size: 10px;&quot;&gt;&lt;br&gt;&lt;/font&gt;" style="text;html=1;align=center;verticalAlign=middle;resizable=0;points=[];autosize=1;strokeColor=none;fillColor=none;" vertex="1" parent="O1R24SHKEE9NZaeV5XWA-12">
          <mxGeometry x="27.5" y="20" width="20" height="30" as="geometry" />
        </mxCell>
        <mxCell id="O1R24SHKEE9NZaeV5XWA-14" value="&lt;div style=&quot;font-size: 11px;&quot;&gt;&lt;font style=&quot;font-size: 11px;&quot;&gt;&amp;lt;&amp;lt;Plugin&amp;gt;&amp;gt;&lt;/font&gt;&lt;/div&gt;&lt;div style=&quot;font-size: 11px;&quot;&gt;&lt;font style=&quot;font-size: 11px;&quot;&gt;Cesta&lt;font style=&quot;font-size: 11px;&quot;&gt;&lt;br&gt;&lt;/font&gt;&lt;/font&gt;&lt;/div&gt;" style="swimlane;whiteSpace=wrap;html=1;startSize=23;" vertex="1" parent="1">
          <mxGeometry x="785.5" y="650" width="80" height="40" as="geometry">
            <mxRectangle x="420" y="85" width="90" height="40" as="alternateBounds" />
          </mxGeometry>
        </mxCell>
        <mxCell id="O1R24SHKEE9NZaeV5XWA-15" value="" style="rhombus;whiteSpace=wrap;html=1;fillColor=#000000;" vertex="1" parent="1">
          <mxGeometry x="815.5" y="609" width="20" height="22.5" as="geometry" />
        </mxCell>
        <mxCell id="O1R24SHKEE9NZaeV5XWA-16" value="" style="endArrow=none;html=1;rounded=0;entryX=0.5;entryY=1;entryDx=0;entryDy=0;exitX=0.5;exitY=0;exitDx=0;exitDy=0;" edge="1" parent="1" source="O1R24SHKEE9NZaeV5XWA-14">
          <mxGeometry width="50" height="50" relative="1" as="geometry">
            <mxPoint x="827.0600000000001" y="651.36" as="sourcePoint" />
            <mxPoint x="825.5" y="631.5" as="targetPoint" />
          </mxGeometry>
        </mxCell>
        <mxCell id="O1R24SHKEE9NZaeV5XWA-19" value="" style="endArrow=none;html=1;rounded=0;" edge="1" parent="1">
          <mxGeometry width="50" height="50" relative="1" as="geometry">
            <mxPoint x="160" y="760" as="sourcePoint" />
            <mxPoint x="760" y="760" as="targetPoint" />
          </mxGeometry>
        </mxCell>
        <mxCell id="O1R24SHKEE9NZaeV5XWA-20" value="" style="endArrow=none;html=1;rounded=0;exitX=1;exitY=0.75;exitDx=0;exitDy=0;" edge="1" parent="1">
          <mxGeometry width="50" height="50" relative="1" as="geometry">
            <mxPoint x="750" y="590" as="sourcePoint" />
            <mxPoint x="760" y="590" as="targetPoint" />
          </mxGeometry>
        </mxCell>
        <mxCell id="O1R24SHKEE9NZaeV5XWA-22" value="" style="endArrow=none;html=1;rounded=0;" edge="1" parent="1">
          <mxGeometry width="50" height="50" relative="1" as="geometry">
            <mxPoint x="760" y="760" as="sourcePoint" />
            <mxPoint x="760" y="590" as="targetPoint" />
          </mxGeometry>
        </mxCell>
        <mxCell id="O1R24SHKEE9NZaeV5XWA-23" value="" style="endArrow=none;html=1;rounded=0;" edge="1" parent="1">
          <mxGeometry width="50" height="50" relative="1" as="geometry">
            <mxPoint x="690" y="320" as="sourcePoint" />
            <mxPoint x="820" y="320" as="targetPoint" />
          </mxGeometry>
        </mxCell>
        <mxCell id="O1R24SHKEE9NZaeV5XWA-25" value="" style="endArrow=none;html=1;rounded=0;" edge="1" parent="1">
          <mxGeometry width="50" height="50" relative="1" as="geometry">
            <mxPoint x="910" y="590" as="sourcePoint" />
            <mxPoint x="910" y="760" as="targetPoint" />
          </mxGeometry>
        </mxCell>
        <mxCell id="O1R24SHKEE9NZaeV5XWA-26" value="" style="endArrow=none;html=1;rounded=0;" edge="1" parent="1">
          <mxGeometry width="50" height="50" relative="1" as="geometry">
            <mxPoint x="880" y="590" as="sourcePoint" />
            <mxPoint x="910" y="590" as="targetPoint" />
          </mxGeometry>
        </mxCell>
        <mxCell id="O1R24SHKEE9NZaeV5XWA-27" value="&lt;div style=&quot;font-size: 10px;&quot;&gt;&lt;b&gt;&lt;font style=&quot;font-size: 10px;&quot;&gt;&amp;lt;&lt;font style=&quot;font-size: 10px;&quot;&gt;&amp;lt;Page&amp;gt;&amp;gt;&lt;/font&gt;&lt;/font&gt;&lt;/b&gt;&lt;/div&gt;&lt;div style=&quot;font-size: 10px;&quot;&gt;&lt;b&gt;Cesta&lt;/b&gt;&lt;br&gt;&lt;/div&gt;" style="text;html=1;align=center;verticalAlign=middle;whiteSpace=wrap;rounded=0;" vertex="1" parent="1">
          <mxGeometry x="733" y="549" width="195" height="30" as="geometry" />
        </mxCell>
        <mxCell id="O1R24SHKEE9NZaeV5XWA-28" value="" style="endArrow=none;html=1;rounded=0;exitX=1;exitY=0.5;exitDx=0;exitDy=0;entryX=0;entryY=0.5;entryDx=0;entryDy=0;" edge="1" parent="1" source="O1R24SHKEE9NZaeV5XWA-1" target="O1R24SHKEE9NZaeV5XWA-4">
          <mxGeometry width="50" height="50" relative="1" as="geometry">
            <mxPoint x="540" y="190" as="sourcePoint" />
            <mxPoint x="650" y="110" as="targetPoint" />
          </mxGeometry>
        </mxCell>
        <mxCell id="O1R24SHKEE9NZaeV5XWA-29" value="" style="endArrow=none;html=1;rounded=0;" edge="1" parent="1">
          <mxGeometry width="50" height="50" relative="1" as="geometry">
            <mxPoint x="140" y="780" as="sourcePoint" />
            <mxPoint x="910" y="780" as="targetPoint" />
          </mxGeometry>
        </mxCell>
        <mxCell id="O1R24SHKEE9NZaeV5XWA-30" value="" style="endArrow=none;html=1;rounded=0;" edge="1" parent="1">
          <mxGeometry width="50" height="50" relative="1" as="geometry">
            <mxPoint x="910" y="780" as="sourcePoint" />
            <mxPoint x="910" y="760" as="targetPoint" />
          </mxGeometry>
        </mxCell>
        <mxCell id="O1R24SHKEE9NZaeV5XWA-31" value="" style="endArrow=none;html=1;rounded=0;" edge="1" parent="1">
          <mxGeometry width="50" height="50" relative="1" as="geometry">
            <mxPoint x="140" y="780" as="sourcePoint" />
            <mxPoint x="140" y="200" as="targetPoint" />
          </mxGeometry>
        </mxCell>
        <mxCell id="O1R24SHKEE9NZaeV5XWA-32" value="" style="endArrow=none;html=1;rounded=0;" edge="1" parent="1">
          <mxGeometry width="50" height="50" relative="1" as="geometry">
            <mxPoint x="140" y="200" as="sourcePoint" />
            <mxPoint x="290" y="200" as="targetPoint" />
          </mxGeometry>
        </mxCell>
      </root>
    </mxGraphModel>
  </diagram>
</mxfile>
